# xmcd
#
# Track frame offsets:
# 150
# 18863
# 47713
# 62028
# 84077
# 102030
# 118266
# 136898
# 169338
# 192805
# 214211
# 237146
# 258146
#
# Disc length: 3650 seconds
#
#
# Revision: 0
# Processed by: cddbd v1.5PL3 Copyright (c) Steve Scherf et al.
# Submitted via: FreeRIP 2.60 
#
DISCID=a60e400d
DTITLE=R. Kelly - Chocolate Factory
DYEAR=1900
DGENRE=
TTITLE0=Been around the world feat. Jarule
TTITLE1=Ignition
TTITLE2=Ignition Remix
TTITLE3=Snake
TTITLE4=Dream girl
TTITLE5=Who's that feat. fat joe
TTITLE6=Knock me out
TTITLE7=Step in the world of love remix
TTITLE8=Heaven I need a hug
TTITLE9=Reality
TTITLE10=Second Kelly
TTITLE11=Looking for love
TTITLE12=Dancing with a rich man
EXTD=
EXTT0=
EXTT1=
EXTT2=
EXTT3=
EXTT4=
EXTT5=
EXTT6=
EXTT7=
EXTT8=
EXTT9=
EXTT10=
EXTT11=
EXTT12=
PLAYORDER=
